<?xml version="1.0" encoding="iso-8859-1"?>
<!-- Generator: Adobe Illustrator 18.0.0, SVG Export Plug-In . SVG Version: 6.00 Build 0)  -->
<!DOCTYPE svg PUBLIC "-//W3C//DTD SVG 1.1//EN" "http://www.w3.org/Graphics/SVG/1.1/DTD/svg11.dtd">
<svg version="1.1" id="Capa_1" xmlns="http://www.w3.org/2000/svg" xmlns:xlink="http://www.w3.org/1999/xlink" x="0px" y="0px"
	 viewBox="0 0 381.954 381.954" style="enable-background:new 0 0 381.954 381.954;" xml:space="preserve">
<g>
	<path d="M41.818,186.626C15.633,186.626,0,205.016,0,235.823v3.961c0,30.805,15.969,49.197,42.718,49.197
		c26.626,0,40.558-16.781,40.558-33.359v-2.219H68.217v1.5c0,10.184-7.885,20.459-25.499,20.459
		c-16.901,0-25.94-10.375-26.884-30.84h67.441v-8.699C83.275,205.016,67.777,186.626,41.818,186.626z M15.834,231.083
		c0.68-14.426,5.844-30.838,25.804-30.838c19.73,0,24.985,16.408,25.79,30.838H15.834z"/>
	<path d="M372.113,136.475c-2.432-1.168-60.08-28.627-107.331-28.627c-7.316,0-14.122,0.67-20.227,1.992
		c-23.199,5.022-40.413,14.146-51.244,27.112c-3.497-4.759-7.904-9.584-13.397-14.424c-28.067-24.732-89.287-28.732-91.879-28.89
		l-10.9-0.664l2.031,10.729c0.465,2.455,11.29,58.319,37.117,84.569c-18.229,5.119-28.765,22.02-28.765,47.372v4.32
		c0,30.693,15.432,49.018,41.279,49.018c26.276,0,38.038-16.936,38.038-33.719v-4.381h-15.06v1.5c0,6.693-2.222,22.26-22.799,22.26
		c-21.225,0-25.68-18.857-25.68-34.678v-4.32c0-15.82,4.455-34.678,25.68-34.678c1.3,0,2.522,0.068,3.681,0.191
		c4.577,2.816,9.125,4.971,13.633,6.474c4.514,5.16,5.484,12.266,5.484,17.394v1.5h15.06v-5.1c0-3.857-0.587-7.722-1.784-11.399
		c3.219-0.278,6.345-0.92,9.351-1.933c-3.638,7.48-5.575,16.744-5.575,27.551v4.32c0,30.693,15.566,49.018,41.638,49.018
		c26.072,0,41.638-18.324,41.638-49.018v-4.32c0-2.183-0.088-4.296-0.243-6.352c5.733-0.451,11.745-1.346,17.977-2.694
		c49.191-10.651,102.857-74.306,105.117-77.011l7.003-8.379L372.113,136.475z M181.267,177.965l-52.977-41.708l44.403,54.086
		c-3.473,1.895-7.238,2.853-11.268,2.853c0,0-0.002,0-0.002,0c-9.215-0.001-19.866-5.095-30.8-14.73
		c-17.197-15.155-27.686-49.085-32.184-66.753c20.506,2.555,54.137,9.382,70.236,23.569c7.006,6.173,12.051,12.323,15.12,18.308
		C181.152,161.182,180.286,169.381,181.267,177.965z M236.322,239.964c0,15.82-4.486,34.678-25.858,34.678
		c-21.372,0-25.858-18.857-25.858-34.678v-4.32c0-9.863,1.746-20.906,8.238-27.824c9.579,12.482,24.413,19.961,43.218,21.509
		c0.181,2.124,0.261,4.246,0.261,6.315V239.964z M266.237,209.982c-8.147,1.764-15.787,2.658-22.709,2.658
		c-19.166,0-32.745-6.649-39.96-19.383l98.473-35.018l-103.583,19.958c-1.796-11.088,0.525-20.893,6.928-29.172
		c8.091-10.46,22.879-18.265,42.766-22.57c4.925-1.066,10.52-1.607,16.629-1.607c32.115,0,71.212,14.648,89.541,22.345
		C338.335,164.483,299.883,202.697,266.237,209.982z"/>
</g>
<g>
</g>
<g>
</g>
<g>
</g>
<g>
</g>
<g>
</g>
<g>
</g>
<g>
</g>
<g>
</g>
<g>
</g>
<g>
</g>
<g>
</g>
<g>
</g>
<g>
</g>
<g>
</g>
<g>
</g>
</svg>
